<svg width="1280" height="720" viewBox="0 0 1280 720" fill="none" xmlns="http://www.w3.org/2000/svg">
  <defs>
    <radialGradient id="bg1" cx="30%" cy="50%" r="70%">
      <stop offset="0%" stop-color="#0A1A10"/>
      <stop offset="100%" stop-color="#050508"/>
    </radialGradient>
    <radialGradient id="glow1" cx="50%" cy="50%" r="50%">
      <stop offset="0%" stop-color="#00E87A" stop-opacity="0.25"/>
      <stop offset="100%" stop-color="#00E87A" stop-opacity="0"/>
    </radialGradient>
    <linearGradient id="greenBar" x1="0" y1="0" x2="1" y2="0">
      <stop offset="0%" stop-color="#00E87A"/>
      <stop offset="100%" stop-color="#00C068"/>
    </linearGradient>
    <clipPath id="c1"><rect width="1280" height="720" rx="0"/></clipPath>
  </defs>
  <g clip-path="url(#c1)">

  <!-- BG -->
  <rect width="1280" height="720" fill="url(#bg1)"/>
  <ellipse cx="350" cy="360" rx="500" ry="400" fill="url(#glow1)"/>

  <!-- Grid -->
  <g opacity="0.04" stroke="white" stroke-width="1">
    <line x1="0" y1="120" x2="1280" y2="120"/><line x1="0" y1="240" x2="1280" y2="240"/>
    <line x1="0" y1="360" x2="1280" y2="360"/><line x1="0" y1="480" x2="1280" y2="480"/>
    <line x1="0" y1="600" x2="1280" y2="600"/>
    <line x1="160" y1="0" x2="160" y2="720"/><line x1="320" y1="0" x2="320" y2="720"/>
    <line x1="480" y1="0" x2="480" y2="720"/><line x1="640" y1="0" x2="640" y2="720"/>
    <line x1="800" y1="0" x2="800" y2="720"/><line x1="960" y1="0" x2="960" y2="720"/>
    <line x1="1120" y1="0" x2="1120" y2="720"/>
  </g>

  <!-- Green left accent bar -->
  <rect x="0" y="0" width="8" height="720" fill="url(#greenBar)"/>

  <!-- LEFT: Text content -->
  <!-- Label -->
  <rect x="60" y="80" width="220" height="36" rx="18" fill="rgba(0,232,122,0.12)" stroke="rgba(0,232,122,0.3)" stroke-width="1.5"/>
  <text x="170" y="103" font-family="-apple-system,system-ui,sans-serif" font-size="15" font-weight="700" fill="#00E87A" text-anchor="middle" letter-spacing="2">FULL DEMO</text>

  <!-- Main headline -->
  <text x="60" y="210" font-family="-apple-system,system-ui,sans-serif" font-size="100" font-weight="800" fill="#F0F0F5" letter-spacing="-3">10</text>
  <text x="60" y="310" font-family="-apple-system,system-ui,sans-serif" font-size="72" font-weight="800" fill="#00E87A" letter-spacing="-2">Features.</text>
  <text x="60" y="400" font-family="-apple-system,system-ui,sans-serif" font-size="52" font-weight="700" fill="rgba(240,240,245,0.7)" letter-spacing="-1">One Platform.</text>

  <!-- Sub -->
  <text x="60" y="460" font-family="-apple-system,system-ui,sans-serif" font-size="28" fill="rgba(240,240,245,0.38)">Everything your restaurant needs</text>
  <text x="60" y="495" font-family="-apple-system,system-ui,sans-serif" font-size="28" fill="rgba(240,240,245,0.38)">to dominate Google Reviews.</text>

  <!-- Duration badge -->
  <rect x="60" y="560" width="160" height="48" rx="12" fill="#00E87A"/>
  <text x="140" y="590" font-family="-apple-system,system-ui,sans-serif" font-size="22" font-weight="800" fill="#000" text-anchor="middle">2 MIN WATCH</text>

  <!-- Branding -->
  <circle cx="76" cy="668" r="10" fill="#00E87A"/>
  <text x="94" y="674" font-family="-apple-system,system-ui,sans-serif" font-size="22" font-weight="800" fill="#F0F0F5">Ratinova</text>

  <!-- RIGHT: Dashboard mockup -->
  <g transform="translate(680, 60)">
    <!-- Browser window -->
    <rect width="560" height="600" rx="16" fill="#0D0D18" stroke="rgba(255,255,255,0.08)" stroke-width="1.5"/>
    <!-- Title bar -->
    <rect width="560" height="38" rx="16" fill="#13131E"/>
    <rect y="20" width="560" height="18" fill="#13131E"/>
    <circle cx="20" cy="19" r="6" fill="#FF5F57"/>
    <circle cx="38" cy="19" r="6" fill="#FFBD2E"/>
    <circle cx="56" cy="19" r="6" fill="#28C840"/>
    <rect x="160" y="8" width="240" height="22" rx="6" fill="#080810"/>
    <text x="280" y="23" font-family="-apple-system,system-ui,sans-serif" font-size="10" fill="rgba(240,240,245,0.25)" text-anchor="middle">app.ratinova.com</text>

    <!-- Content area -->
    <text x="20" y="74" font-family="-apple-system,system-ui,sans-serif" font-size="16" font-weight="700" fill="#F0F0F5">Spice Garden Dashboard</text>

    <!-- Stat cards -->
    <rect x="20" y="88" width="120" height="80" rx="10" fill="#0F0F1A" stroke="rgba(255,255,255,0.06)" stroke-width="1"/>
    <text x="32" y="108" font-family="-apple-system,system-ui,sans-serif" font-size="8" font-weight="700" fill="rgba(240,240,245,0.3)" letter-spacing="0.08em">RATING</text>
    <text x="32" y="140" font-family="-apple-system,system-ui,sans-serif" font-size="28" font-weight="800" fill="#00E87A">4.8★</text>
    <text x="32" y="158" font-family="-apple-system,system-ui,sans-serif" font-size="9" fill="#00E87A">↑ from 4.1</text>

    <rect x="152" y="88" width="120" height="80" rx="10" fill="#0F0F1A" stroke="rgba(255,255,255,0.06)" stroke-width="1"/>
    <text x="164" y="108" font-family="-apple-system,system-ui,sans-serif" font-size="8" font-weight="700" fill="rgba(240,240,245,0.3)" letter-spacing="0.08em">REVIEWS</text>
    <text x="164" y="140" font-family="-apple-system,system-ui,sans-serif" font-size="28" font-weight="800" fill="#F0F0F5">247</text>
    <text x="164" y="158" font-family="-apple-system,system-ui,sans-serif" font-size="9" fill="#00E87A">↑ 18 this month</text>

    <rect x="284" y="88" width="120" height="80" rx="10" fill="rgba(0,232,122,0.06)" stroke="rgba(0,232,122,0.18)" stroke-width="1"/>
    <text x="296" y="108" font-family="-apple-system,system-ui,sans-serif" font-size="8" font-weight="700" fill="rgba(0,232,122,0.5)" letter-spacing="0.08em">THIS WEEK</text>
    <text x="296" y="140" font-family="-apple-system,system-ui,sans-serif" font-size="28" font-weight="800" fill="#00E87A">+12</text>
    <text x="296" y="158" font-family="-apple-system,system-ui,sans-serif" font-size="9" fill="rgba(0,232,122,0.6)">↑ 3× last week</text>

    <rect x="416" y="88" width="124" height="80" rx="10" fill="#0F0F1A" stroke="rgba(255,255,255,0.06)" stroke-width="1"/>
    <text x="428" y="108" font-family="-apple-system,system-ui,sans-serif" font-size="8" font-weight="700" fill="rgba(240,240,245,0.3)" letter-spacing="0.08em">ROUTING</text>
    <rect x="428" y="120" width="34" height="18" rx="9" fill="#00E87A"/>
    <circle cx="453" cy="129" r="7" fill="white"/>
    <text x="428" y="158" font-family="-apple-system,system-ui,sans-serif" font-size="9" fill="rgba(0,232,122,0.6)">4 caught today</text>

    <!-- Chart -->
    <rect x="20" y="182" width="520" height="180" rx="10" fill="#0F0F1A" stroke="rgba(255,255,255,0.06)" stroke-width="1"/>
    <text x="34" y="202" font-family="-apple-system,system-ui,sans-serif" font-size="11" font-weight="700" fill="#F0F0F5">Reviews Over Time</text>
    <defs>
      <linearGradient id="cf1" x1="0" y1="0" x2="0" y2="1">
        <stop offset="0%" stop-color="#00E87A" stop-opacity="0.25"/>
        <stop offset="100%" stop-color="#00E87A" stop-opacity="0"/>
      </linearGradient>
    </defs>
    <path d="M34 330 C80 325 130 318 180 305 C230 292 280 275 330 258 C380 242 430 230 480 220 L530 215 L530 350 L34 350 Z" fill="url(#cf1)"/>
    <path d="M34 330 C80 325 130 318 180 305 C230 292 280 275 330 258 C380 242 430 230 480 220 L530 215" stroke="#00E87A" stroke-width="2.5" fill="none" stroke-linecap="round"/>
    <circle cx="530" cy="215" r="5" fill="#00E87A"/>
    <circle cx="530" cy="215" r="10" fill="#00E87A" opacity="0.2"/>
    <line x1="34" y1="280" x2="530" y2="280" stroke="rgba(255,255,255,0.04)" stroke-width="1"/>
    <line x1="34" y1="315" x2="530" y2="315" stroke="rgba(255,255,255,0.04)" stroke-width="1"/>
    <line x1="34" y1="350" x2="530" y2="350" stroke="rgba(255,255,255,0.04)" stroke-width="1"/>

    <!-- Recent reviews -->
    <rect x="20" y="376" width="340" height="200" rx="10" fill="#0F0F1A" stroke="rgba(255,255,255,0.06)" stroke-width="1"/>
    <text x="34" y="396" font-family="-apple-system,system-ui,sans-serif" font-size="11" font-weight="700" fill="#F0F0F5">Recent Reviews</text>
    <circle cx="42" cy="424" r="14" fill="#1E1E30"/>
    <text x="42" y="428" font-family="-apple-system,system-ui,sans-serif" font-size="11" font-weight="700" fill="#F0F0F5" text-anchor="middle">P</text>
    <text x="62" y="420" font-family="-apple-system,system-ui,sans-serif" font-size="11" font-weight="600" fill="#F0F0F5">Priya S.</text>
    <text x="62" y="434" font-family="-apple-system,system-ui,sans-serif" font-size="10" fill="#00E87A">★★★★★</text>
    <text x="34" y="452" font-family="-apple-system,system-ui,sans-serif" font-size="10" fill="rgba(240,240,245,0.35)">"Amazing food!"</text>
    <line x1="34" y1="462" x2="346" y2="462" stroke="rgba(255,255,255,0.05)" stroke-width="1"/>
    <circle cx="42" cy="480" r="14" fill="#1E1E30"/>
    <text x="42" y="484" font-family="-apple-system,system-ui,sans-serif" font-size="11" font-weight="700" fill="#F0F0F5" text-anchor="middle">R</text>
    <text x="62" y="476" font-family="-apple-system,system-ui,sans-serif" font-size="11" font-weight="600" fill="#F0F0F5">Rahul M.</text>
    <text x="62" y="490" font-family="-apple-system,system-ui,sans-serif" font-size="10" fill="#00E87A">★★★★★</text>
    <text x="34" y="508" font-family="-apple-system,system-ui,sans-serif" font-size="10" fill="rgba(240,240,245,0.35)">"Best biryani!"</text>
    <line x1="34" y1="518" x2="346" y2="518" stroke="rgba(255,255,255,0.05)" stroke-width="1"/>
    <circle cx="42" cy="540" r="14" fill="#1E1E30"/>
    <text x="42" y="544" font-family="-apple-system,system-ui,sans-serif" font-size="11" font-weight="700" fill="#F0F0F5" text-anchor="middle">A</text>
    <text x="62" y="536" font-family="-apple-system,system-ui,sans-serif" font-size="11" font-weight="600" fill="#F0F0F5">Anjali K.</text>
    <text x="62" y="550" font-family="-apple-system,system-ui,sans-serif" font-size="10" fill="#00E87A">★★★★</text>
    <text x="34" y="568" font-family="-apple-system,system-ui,sans-serif" font-size="10" fill="rgba(240,240,245,0.35)">"Great ambiance!"</text>

    <!-- Smart routing card -->
    <rect x="372" y="376" width="168" height="90" rx="10" fill="#0F0F1A" stroke="rgba(255,255,255,0.06)" stroke-width="1"/>
    <text x="386" y="396" font-family="-apple-system,system-ui,sans-serif" font-size="9" font-weight="700" fill="rgba(240,240,245,0.3)" letter-spacing="0.08em">SMART ROUTING</text>
    <rect x="386" y="408" width="36" height="18" rx="9" fill="#00E87A"/>
    <circle cx="413" cy="417" r="7" fill="white"/>
    <text x="430" y="421" font-family="-apple-system,system-ui,sans-serif" font-size="11" font-weight="700" fill="#00E87A">ON</text>
    <text x="386" y="450" font-family="-apple-system,system-ui,sans-serif" font-size="9" fill="rgba(240,240,245,0.28)">4 protected today</text>

    <!-- QR card -->
    <rect x="372" y="478" width="168" height="90" rx="10" fill="#0F0F1A" stroke="rgba(255,255,255,0.06)" stroke-width="1"/>
    <text x="386" y="498" font-family="-apple-system,system-ui,sans-serif" font-size="9" font-weight="700" fill="rgba(240,240,245,0.3)" letter-spacing="0.08em">QR SCANS</text>
    <text x="386" y="535" font-family="-apple-system,system-ui,sans-serif" font-size="30" font-weight="800" fill="#F0F0F5">152</text>
    <text x="386" y="555" font-family="-apple-system,system-ui,sans-serif" font-size="9" fill="#00E87A">↑ this month</text>
  </g>

  <!-- Bottom border -->
  <rect x="0" y="717" width="1280" height="3" fill="url(#greenBar)" opacity="0.5"/>
  </g>
</svg>
