<svg width="2560" height="1440" viewBox="0 0 2560 1440" fill="none" xmlns="http://www.w3.org/2000/svg">
  <defs>

    <!-- Background gradient -->
    <radialGradient id="bgGlow" cx="50%" cy="50%" r="55%">
      <stop offset="0%"   stop-color="#0D1A12"/>
      <stop offset="60%"  stop-color="#070A0E"/>
      <stop offset="100%" stop-color="#050508"/>
    </radialGradient>

    <!-- Center green glow -->
    <radialGradient id="centerGlow" cx="50%" cy="50%" r="50%">
      <stop offset="0%"   stop-color="#00E87A" stop-opacity="0.18"/>
      <stop offset="100%" stop-color="#00E87A" stop-opacity="0"/>
    </radialGradient>

    <!-- Left glow -->
    <radialGradient id="leftGlow" cx="50%" cy="50%" r="50%">
      <stop offset="0%"   stop-color="#00E87A" stop-opacity="0.08"/>
      <stop offset="100%" stop-color="#00E87A" stop-opacity="0"/>
    </radialGradient>

    <!-- Right glow -->
    <radialGradient id="rightGlow" cx="50%" cy="50%" r="50%">
      <stop offset="0%"   stop-color="#0050FF" stop-opacity="0.07"/>
      <stop offset="100%" stop-color="#0050FF" stop-opacity="0"/>
    </radialGradient>

    <!-- Logo icon bg gradient -->
    <linearGradient id="iconBg" x1="0" y1="0" x2="88" y2="88" gradientUnits="userSpaceOnUse">
      <stop offset="0%"   stop-color="#00E87A" stop-opacity="0.18"/>
      <stop offset="100%" stop-color="#00E87A" stop-opacity="0.04"/>
    </linearGradient>

    <!-- Bar chart gradient -->
    <linearGradient id="barGrad" x1="0" y1="0" x2="0" y2="1">
      <stop offset="0%"   stop-color="#00E87A"/>
      <stop offset="100%" stop-color="#00C068"/>
    </linearGradient>

    <!-- Chart area fill -->
    <linearGradient id="chartFill" x1="0" y1="0" x2="0" y2="1">
      <stop offset="0%"   stop-color="#00E87A" stop-opacity="0.3"/>
      <stop offset="100%" stop-color="#00E87A" stop-opacity="0"/>
    </linearGradient>

    <!-- Clip for full canvas -->
    <clipPath id="clip">
      <rect width="2560" height="1440"/>
    </clipPath>

  </defs>

  <g clip-path="url(#clip)">

  <!-- ── BACKGROUND ── -->
  <rect width="2560" height="1440" fill="url(#bgGlow)"/>

  <!-- Grid pattern -->
  <g opacity="0.03">
    <!-- Vertical lines -->
    <line x1="160"  y1="0" x2="160"  y2="1440" stroke="white" stroke-width="1"/>
    <line x1="320"  y1="0" x2="320"  y2="1440" stroke="white" stroke-width="1"/>
    <line x1="480"  y1="0" x2="480"  y2="1440" stroke="white" stroke-width="1"/>
    <line x1="640"  y1="0" x2="640"  y2="1440" stroke="white" stroke-width="1"/>
    <line x1="800"  y1="0" x2="800"  y2="1440" stroke="white" stroke-width="1"/>
    <line x1="960"  y1="0" x2="960"  y2="1440" stroke="white" stroke-width="1"/>
    <line x1="1120" y1="0" x2="1120" y2="1440" stroke="white" stroke-width="1"/>
    <line x1="1280" y1="0" x2="1280" y2="1440" stroke="white" stroke-width="1"/>
    <line x1="1440" y1="0" x2="1440" y2="1440" stroke="white" stroke-width="1"/>
    <line x1="1600" y1="0" x2="1600" y2="1440" stroke="white" stroke-width="1"/>
    <line x1="1760" y1="0" x2="1760" y2="1440" stroke="white" stroke-width="1"/>
    <line x1="1920" y1="0" x2="1920" y2="1440" stroke="white" stroke-width="1"/>
    <line x1="2080" y1="0" x2="2080" y2="1440" stroke="white" stroke-width="1"/>
    <line x1="2240" y1="0" x2="2240" y2="1440" stroke="white" stroke-width="1"/>
    <line x1="2400" y1="0" x2="2400" y2="1440" stroke="white" stroke-width="1"/>
    <!-- Horizontal lines -->
    <line x1="0" y1="180"  x2="2560" y2="180"  stroke="white" stroke-width="1"/>
    <line x1="0" y1="360"  x2="2560" y2="360"  stroke="white" stroke-width="1"/>
    <line x1="0" y1="540"  x2="2560" y2="540"  stroke="white" stroke-width="1"/>
    <line x1="0" y1="720"  x2="2560" y2="720"  stroke="white" stroke-width="1"/>
    <line x1="0" y1="900"  x2="2560" y2="900"  stroke="white" stroke-width="1"/>
    <line x1="0" y1="1080" x2="2560" y2="1080" stroke="white" stroke-width="1"/>
    <line x1="0" y1="1260" x2="2560" y2="1260" stroke="white" stroke-width="1"/>
  </g>

  <!-- Ambient glows -->
  <ellipse cx="1280" cy="720" rx="900" ry="500" fill="url(#centerGlow)"/>
  <ellipse cx="200"  cy="720" rx="500" ry="500" fill="url(#leftGlow)"/>
  <ellipse cx="2360" cy="720" rx="500" ry="500" fill="url(#rightGlow)"/>

  <!-- ═══════════════════════════════════
       LEFT DECORATION — Dashboard card
  ═══════════════════════════════════ -->
  <g opacity="0.22" transform="translate(60, 380)">
    <!-- Card bg -->
    <rect width="360" height="520" rx="24" fill="#0F0F1A" stroke="rgba(255,255,255,0.08)" stroke-width="1.5"/>
    <!-- Card header -->
    <rect width="360" height="56" rx="24" fill="#13131E"/>
    <rect y="28" width="360" height="28" fill="#13131E"/>
    <circle cx="28" cy="28" r="8" fill="#FF5F57"/>
    <circle cx="52" cy="28" r="8" fill="#FFBD2E"/>
    <circle cx="76" cy="28" r="8" fill="#28C840"/>
    <!-- Rating big number -->
    <text x="30" y="130" font-family="system-ui" font-size="52" font-weight="800" fill="#00E87A">4.8</text>
    <text x="30" y="162" font-family="system-ui" font-size="18" fill="#F0F0F5" opacity="0.5">Google Rating</text>
    <!-- Stars -->
    <text x="30" y="200" font-family="system-ui" font-size="24" fill="#00E87A">★★★★★</text>
    <!-- Divider -->
    <rect x="30" y="220" width="300" height="1" fill="rgba(255,255,255,0.06)"/>
    <!-- Stats -->
    <text x="30" y="258" font-family="system-ui" font-size="13" fill="rgba(240,240,245,0.4)">TOTAL REVIEWS</text>
    <text x="30" y="290" font-family="system-ui" font-size="36" font-weight="700" fill="#F0F0F5">247</text>
    <rect x="30" y="302" width="110" height="22" rx="6" fill="rgba(0,232,122,0.12)"/>
    <text x="85" y="317" font-family="system-ui" font-size="11" fill="#00E87A" text-anchor="middle">↑ 18 this month</text>
    <!-- Mini chart bars -->
    <rect x="30"  y="390" width="32" height="50"  rx="6" fill="#00E87A" opacity="0.2"/>
    <rect x="72"  y="370" width="32" height="70"  rx="6" fill="#00E87A" opacity="0.35"/>
    <rect x="114" y="350" width="32" height="90"  rx="6" fill="#00E87A" opacity="0.5"/>
    <rect x="156" y="330" width="32" height="110" rx="6" fill="#00E87A" opacity="0.65"/>
    <rect x="198" y="310" width="32" height="130" rx="6" fill="#00E87A" opacity="0.8"/>
    <rect x="240" y="295" width="32" height="145" rx="6" fill="#00E87A" opacity="0.95"/>
    <rect x="282" y="300" width="32" height="140" rx="6" fill="#00E87A" opacity="0.85"/>
  </g>

  <!-- ═══════════════════════════════════
       RIGHT DECORATION — Phone + WA card
  ═══════════════════════════════════ -->
  <g opacity="0.22" transform="translate(2170, 300)">
    <!-- Phone -->
    <rect width="220" height="440" rx="32" fill="#0A0A13" stroke="rgba(255,255,255,0.1)" stroke-width="2"/>
    <rect x="70" y="0" width="80" height="24" rx="0 0 14 14" fill="#080810"/>
    <rect x="70" y="12" width="80" height="12" fill="#080810"/>
    <!-- WA header -->
    <rect x="0" y="36" width="220" height="50" fill="#075E54"/>
    <circle cx="26" cy="61" r="14" fill="#25D366"/>
    <text x="26" y="65" font-family="system-ui" font-size="12" font-weight="700" fill="white" text-anchor="middle">R</text>
    <text x="50" y="57" font-family="system-ui" font-size="12" font-weight="600" fill="white">Ratinova Alerts</text>
    <text x="50" y="72" font-family="system-ui" font-size="10" fill="rgba(255,255,255,0.6)">● online</text>
    <!-- Messages -->
    <rect x="12" y="100" width="176" height="72" rx="0 10 10 10" fill="#1F2C34"/>
    <text x="24" y="118" font-family="system-ui" font-size="10" font-weight="700" fill="#00E87A">🌟 New Review Alert</text>
    <text x="24" y="134" font-family="system-ui" font-size="10" fill="#F0F0F5">★★★★★ from Priya S.</text>
    <text x="24" y="148" font-family="system-ui" font-size="9" fill="rgba(240,240,245,0.45)">"Amazing food!"</text>
    <text x="168" y="164" font-family="system-ui" font-size="8" fill="rgba(255,255,255,0.25)" text-anchor="end">just now</text>
    <!-- Message 2 -->
    <rect x="12" y="188" width="176" height="60" rx="0 10 10 10" fill="#1F2C34"/>
    <text x="24" y="206" font-family="system-ui" font-size="10" font-weight="700" fill="#00E87A">🌟 New Review Alert</text>
    <text x="24" y="222" font-family="system-ui" font-size="10" fill="#F0F0F5">★★★★★ from Rahul M.</text>
    <text x="168" y="240" font-family="system-ui" font-size="8" fill="rgba(255,255,255,0.25)" text-anchor="end">2m ago</text>
    <!-- Routing badge -->
    <rect x="12" y="265" width="196" height="52" rx="10" fill="rgba(0,232,122,0.08)" stroke="rgba(0,232,122,0.2)" stroke-width="1"/>
    <text x="110" y="287" font-family="system-ui" font-size="10" font-weight="700" fill="#00E87A" text-anchor="middle">🔒 Bad Review Caught</text>
    <text x="110" y="303" font-family="system-ui" font-size="9" fill="rgba(240,240,245,0.45)" text-anchor="middle">Redirected privately — not on Google</text>
    <!-- Smart routing toggle -->
    <rect x="34" y="336" width="152" height="36" rx="10" fill="#0F0F1A" stroke="rgba(255,255,255,0.07)" stroke-width="1"/>
    <text x="50" y="358" font-family="system-ui" font-size="11" fill="rgba(240,240,245,0.5)">Smart Routing</text>
    <rect x="148" y="344" width="30" height="18" rx="9" fill="#00E87A"/>
    <circle cx="169" cy="353" r="7" fill="white"/>
    <!-- QR hint -->
    <rect x="12" y="388" width="90" height="26" rx="7" fill="rgba(255,255,255,0.04)"/>
    <text x="57" y="405" font-family="system-ui" font-size="10" fill="rgba(240,240,245,0.35)" text-anchor="middle">QR · 152 scans</text>
  </g>

  <!-- ═══════════════════════════════════
       CENTER SAFE ZONE CONTENT
       Safe area: 1546×423 centered → x:507 y:508
  ═══════════════════════════════════ -->

  <!-- Decorative top accent line -->
  <rect x="1180" y="490" width="200" height="2" rx="1" fill="url(#barGrad)" opacity="0.6"/>

  <!-- Logo icon -->
  <g transform="translate(1192, 530)">
    <rect width="88" height="88" rx="22" fill="url(#iconBg)"/>
    <rect width="88" height="88" rx="22" fill="rgba(0,232,122,0.06)"/>
    <rect x="1" y="1" width="86" height="86" rx="21" stroke="#00E87A" stroke-opacity="0.15" stroke-width="1.5"/>
    <!-- Chart bars -->
    <rect x="14" y="60" width="11" height="16" rx="3.5" fill="#00E87A" opacity="0.3"/>
    <rect x="31" y="48" width="11" height="28" rx="3.5" fill="#00E87A" opacity="0.6"/>
    <rect x="48" y="32" width="11" height="44" rx="3.5" fill="#00E87A" opacity="0.9"/>
    <!-- Star -->
    <path d="M71 12 L73.2 18.5 L80 18.5 L74.5 22.5 L76.7 29 L71 25 L65.3 29 L67.5 22.5 L62 18.5 L68.8 18.5 Z" fill="#00E87A"/>
  </g>

  <!-- Brand name -->
  <text
    x="1300"
    y="596"
    font-family="-apple-system, BlinkMacSystemFont, 'Segoe UI', system-ui, sans-serif"
    font-size="112"
    font-weight="800"
    fill="#F0F0F5"
    letter-spacing="-4"
  >Ratinova</text>

  <!-- Green underline accent -->
  <rect x="1300" y="612" width="520" height="4" rx="2" fill="#00E87A" opacity="0.7"/>

  <!-- Tagline -->
  <text
    x="1280"
    y="686"
    font-family="-apple-system, BlinkMacSystemFont, 'Segoe UI', system-ui, sans-serif"
    font-size="36"
    font-weight="400"
    fill="rgba(240,240,245,0.45)"
    text-anchor="middle"
    letter-spacing="0.5"
  >Reviews · Ratings · Results — for Indian Restaurants</text>

  <!-- Feature pills row -->
  <!-- Pill 1 -->
  <rect x="740" y="740" width="200" height="44" rx="22" fill="rgba(0,232,122,0.08)" stroke="rgba(0,232,122,0.2)" stroke-width="1.5"/>
  <circle cx="770" cy="762" r="6" fill="#00E87A"/>
  <text x="786" y="767" font-family="-apple-system, BlinkMacSystemFont, system-ui, sans-serif" font-size="18" font-weight="600" fill="rgba(240,240,245,0.7)">Smart Routing</text>

  <!-- Pill 2 -->
  <rect x="960" y="740" width="220" height="44" rx="22" fill="rgba(0,232,122,0.08)" stroke="rgba(0,232,122,0.2)" stroke-width="1.5"/>
  <circle cx="990" cy="762" r="6" fill="#00E87A"/>
  <text x="1006" y="767" font-family="-apple-system, BlinkMacSystemFont, system-ui, sans-serif" font-size="18" font-weight="600" fill="rgba(240,240,245,0.7)">WhatsApp Alerts</text>

  <!-- Pill 3 -->
  <rect x="1200" y="740" width="160" height="44" rx="22" fill="rgba(0,232,122,0.08)" stroke="rgba(0,232,122,0.2)" stroke-width="1.5"/>
  <circle cx="1230" cy="762" r="6" fill="#00E87A"/>
  <text x="1246" y="767" font-family="-apple-system, BlinkMacSystemFont, system-ui, sans-serif" font-size="18" font-weight="600" fill="rgba(240,240,245,0.7)">AI Replies</text>

  <!-- Pill 4 -->
  <rect x="1380" y="740" width="220" height="44" rx="22" fill="rgba(0,232,122,0.08)" stroke="rgba(0,232,122,0.2)" stroke-width="1.5"/>
  <circle cx="1410" cy="762" r="6" fill="#00E87A"/>
  <text x="1426" y="767" font-family="-apple-system, BlinkMacSystemFont, system-ui, sans-serif" font-size="18" font-weight="600" fill="rgba(240,240,245,0.7)">QR Collection</text>

  <!-- Pill 5 -->
  <rect x="1620" y="740" width="200" height="44" rx="22" fill="rgba(0,232,122,0.08)" stroke="rgba(0,232,122,0.2)" stroke-width="1.5"/>
  <circle cx="1650" cy="762" r="6" fill="#00E87A"/>
  <text x="1666" y="767" font-family="-apple-system, BlinkMacSystemFont, system-ui, sans-serif" font-size="18" font-weight="600" fill="rgba(240,240,245,0.7)">Free 14 Days</text>

  <!-- Bottom tagline -->
  <text
    x="1280"
    y="870"
    font-family="-apple-system, BlinkMacSystemFont, system-ui, sans-serif"
    font-size="22"
    fill="rgba(240,240,245,0.2)"
    text-anchor="middle"
    letter-spacing="3"
  >RATINOVA.COM</text>

  <!-- Decorative bottom accent line -->
  <rect x="1180" y="888" width="200" height="2" rx="1" fill="url(#barGrad)" opacity="0.4"/>

  <!-- ═══════════════════════════════════
       FLOATING DECORATIVE ELEMENTS
  ═══════════════════════════════════ -->

  <!-- Top-left floating star cluster -->
  <g opacity="0.15">
    <circle cx="120" cy="120" r="2" fill="#00E87A"/>
    <circle cx="180" cy="80"  r="1.5" fill="#00E87A"/>
    <circle cx="240" cy="150" r="1" fill="#00E87A"/>
    <circle cx="80"  cy="200" r="1.5" fill="#00E87A"/>
    <circle cx="320" cy="100" r="1" fill="#00E87A"/>
  </g>

  <!-- Top-right floating dots -->
  <g opacity="0.15">
    <circle cx="2440" cy="120" r="2"   fill="#00E87A"/>
    <circle cx="2380" cy="80"  r="1.5" fill="#00E87A"/>
    <circle cx="2500" cy="200" r="1"   fill="#00E87A"/>
    <circle cx="2320" cy="150" r="1.5" fill="#00E87A"/>
  </g>

  <!-- Bottom-left -->
  <g opacity="0.12">
    <circle cx="120" cy="1320" r="2"   fill="#00E87A"/>
    <circle cx="200" cy="1360" r="1.5" fill="#00E87A"/>
    <circle cx="80"  cy="1260" r="1"   fill="#00E87A"/>
  </g>

  <!-- Bottom-right -->
  <g opacity="0.12">
    <circle cx="2440" cy="1320" r="2"   fill="#00E87A"/>
    <circle cx="2380" cy="1370" r="1.5" fill="#00E87A"/>
    <circle cx="2500" cy="1260" r="1"   fill="#00E87A"/>
  </g>

  <!-- Subtle top border glow -->
  <rect x="0" y="0" width="2560" height="3" fill="url(#barGrad)" opacity="0.5"/>
  <!-- Subtle bottom border glow -->
  <rect x="0" y="1437" width="2560" height="3" fill="url(#barGrad)" opacity="0.3"/>

  </g>
</svg>
